<svg width="64" height="64" viewBox="0 0 64 64" fill="none" xmlns="http://www.w3.org/2000/svg">
<g clip-path="url(#clip0_1265_14031)">
<circle cx="32" cy="32" r="32.5" fill="#6245F4" stroke="black"/>
<circle cx="32" cy="80" r="39.1111" fill="#FFE85B"/>
<path d="M43.5 25C43.5 28.1826 42.2357 31.2348 39.9853 33.4853C37.7348 35.7357 34.6826 37 31.5 37C28.3174 37 25.2652 35.7357 23.0147 33.4853C20.7643 31.2348 19.5 28.1826 19.5 25C19.5 21.8174 20.7643 18.7652 23.0147 16.5147C25.2652 14.2643 28.3174 13 31.5 13C34.6826 13 37.7348 14.2643 39.9853 16.5147C42.2357 18.7652 43.5 21.8174 43.5 25Z" fill="#FEDB00"/>
</g>
<defs>
<clipPath id="clip0_1265_14031">
<rect width="64" height="64" rx="32" fill="white"/>
</clipPath>
</defs>
</svg>
