<svg width="24" height="24" viewBox="0 0 24 24" fill="none" xmlns="http://www.w3.org/2000/svg">
<mask id="path-1-outside-1_410_617" maskUnits="userSpaceOnUse" x="1" y="2" width="22" height="20" fill="black">
<rect fill="white" x="1" y="2" width="22" height="20"/>
<path fill-rule="evenodd" clip-rule="evenodd" d="M4.20853 21H19.8487C20.5746 20.9626 21.2374 20.5762 21.6276 19.963C22.0178 19.3498 22.0871 18.5857 21.8136 17.9124L13.9542 4.15842C13.5587 3.44363 12.8062 3 11.9893 3C11.1724 3 10.42 3.44363 10.0245 4.15842L2.16508 17.9124C1.89157 18.5857 1.96087 19.3498 2.35107 19.963C2.74127 20.5762 3.4041 20.9626 4.12993 21"/>
</mask>
<path fill-rule="evenodd" clip-rule="evenodd" d="M4.20853 21H19.8487C20.5746 20.9626 21.2374 20.5762 21.6276 19.963C22.0178 19.3498 22.0871 18.5857 21.8136 17.9124L13.9542 4.15842C13.5587 3.44363 12.8062 3 11.9893 3C11.1724 3 10.42 3.44363 10.0245 4.15842L2.16508 17.9124C1.89157 18.5857 1.96087 19.3498 2.35107 19.963C2.74127 20.5762 3.4041 20.9626 4.12993 21" fill="white"/>
<path d="M4.20853 20C3.65624 20 3.20853 20.4477 3.20853 21C3.20853 21.5523 3.65624 22 4.20853 22V20ZM19.8487 21V22C19.8659 22 19.8831 21.9996 19.9002 21.9987L19.8487 21ZM21.8136 17.9124L22.7401 17.5361C22.7233 17.4949 22.7039 17.4548 22.6818 17.4162L21.8136 17.9124ZM13.9542 4.15842L13.0791 4.64259L13.0859 4.65456L13.9542 4.15842ZM10.0245 4.15842L10.8928 4.65461L10.8995 4.64255L10.0245 4.15842ZM2.16508 17.9124L1.29684 17.4162C1.27478 17.4548 1.25533 17.4949 1.2386 17.5361L2.16508 17.9124ZM4.07845 21.9987C4.63 22.0271 5.10017 21.603 5.12861 21.0515C5.15704 20.4999 4.73297 20.0298 4.18142 20.0013L4.07845 21.9987ZM4.20853 22H19.8487V20H4.20853V22ZM19.9002 21.9987C20.9493 21.9446 21.9073 21.3861 22.4713 20.4999L20.7839 19.4261C20.5675 19.7662 20.1999 19.9806 19.7973 20.0013L19.9002 21.9987ZM22.4713 20.4999C23.0352 19.6137 23.1354 18.5093 22.7401 17.5361L20.8871 18.2887C21.0388 18.6622 21.0004 19.086 20.7839 19.4261L22.4713 20.4999ZM22.6818 17.4162L14.8224 3.66229L13.0859 4.65456L20.9453 18.4085L22.6818 17.4162ZM14.8292 3.6743C14.2576 2.64119 13.17 2 11.9893 2V4C12.4425 4 12.8598 4.24607 13.0792 4.64255L14.8292 3.6743ZM11.9893 2C10.8086 2 9.72109 2.64119 9.14949 3.6743L10.8995 4.64255C11.1188 4.24607 11.5362 4 11.9893 4V2ZM9.15624 3.66229L1.29684 17.4162L3.03333 18.4085L10.8927 4.65456L9.15624 3.66229ZM1.2386 17.5361C0.843282 18.5093 0.943447 19.6137 1.50741 20.4999L3.19473 19.4261C2.9783 19.086 2.93986 18.6622 3.09157 18.2887L1.2386 17.5361ZM1.50741 20.4999C2.07137 21.3861 3.02939 21.9446 4.07845 21.9987L4.18142 20.0013C3.77882 19.9806 3.41116 19.7662 3.19473 19.4261L1.50741 20.4999Z" fill="white" mask="url(#path-1-outside-1_410_617)"/>
<line x1="12" y1="14" x2="12" y2="9" stroke="#BE3A34" stroke-width="2" stroke-linecap="round"/>
<path d="M12.4902 17.6318C12.4902 17.3557 12.2664 17.1318 11.9902 17.1318C11.7141 17.1318 11.4902 17.3557 11.4902 17.6318V17.6452C11.4902 17.9213 11.7141 18.1452 11.9902 18.1452C12.2664 18.1452 12.4902 17.9213 12.4902 17.6452V17.6318Z" fill="#BE3A34" stroke="#BE3A34" stroke-linecap="round" stroke-linejoin="round"/>
</svg>
