<svg width="32" height="32" viewBox="0 0 32 32" fill="none" xmlns="http://www.w3.org/2000/svg">
<path d="M8.19096 8.19029C7.93725 8.444 7.93725 8.85536 8.19096 9.10907L15.0816 15.9997L8.19029 22.8909C7.93657 23.1446 7.93657 23.556 8.19029 23.8097C8.444 24.0634 8.85536 24.0634 9.10907 23.8097L16.0003 16.9184L22.8916 23.8097C23.1453 24.0634 23.5566 24.0634 23.8104 23.8097C24.0641 23.556 24.0641 23.1446 23.8104 22.8909L16.9191 15.9997L23.8097 9.10911C24.0634 8.8554 24.0634 8.44404 23.8097 8.19033C23.556 7.93661 23.1446 7.93661 22.8909 8.19033L16.0003 15.0809L9.10975 8.19029C8.85604 7.93657 8.44468 7.93657 8.19096 8.19029Z" fill="#373E49" stroke="#373E49" stroke-width="0.5"/>
</svg>
