<svg width="287" height="176" viewBox="0 0 287 176" fill="none" xmlns="http://www.w3.org/2000/svg">
<path d="M143.5 7.5C157.424 7.5 170.777 13.0312 180.623 22.8769C190.469 32.7226 196 46.0761 196 60C196 73.9239 190.469 87.2774 180.623 97.1231C170.777 106.969 157.424 112.5 143.5 112.5C129.576 112.5 116.223 106.969 106.377 97.1231C96.5312 87.2774 91 73.9239 91 60C91 46.0761 96.5312 32.7226 106.377 22.8769C116.223 13.0312 129.576 7.5 143.5 7.5ZM136.96 70.3575L125.298 58.6875C124.879 58.2694 124.383 57.9378 123.837 57.7115C123.291 57.4852 122.705 57.3687 122.114 57.3687C121.522 57.3687 120.937 57.4852 120.391 57.7115C119.844 57.9378 119.348 58.2694 118.93 58.6875C118.086 59.5319 117.611 60.6771 117.611 61.8713C117.611 63.0654 118.086 64.2106 118.93 65.055L133.78 79.905C134.197 80.3252 134.693 80.6587 135.239 80.8863C135.786 81.1139 136.372 81.231 136.964 81.231C137.556 81.231 138.142 81.1139 138.688 80.8863C139.235 80.6587 139.731 80.3252 140.147 79.905L170.897 49.1475C171.321 48.7311 171.658 48.235 171.889 47.6877C172.12 47.1405 172.241 46.5529 172.243 45.9588C172.246 45.3648 172.131 44.7761 171.905 44.2267C171.679 43.6773 171.347 43.1781 170.927 42.7578C170.507 42.3375 170.009 42.0045 169.459 41.778C168.91 41.5515 168.322 41.4359 167.728 41.4379C167.134 41.44 166.546 41.5597 165.998 41.79C165.451 42.0203 164.954 42.3568 164.538 42.78L136.96 70.3575Z" fill="#00A857"/>
<path d="M85.4733 167.288C90.2973 167.288 93.8253 163.832 93.8253 159.008C93.8253 154.184 90.2973 150.728 85.4733 150.728C80.6253 150.728 77.0973 154.184 77.0973 159.008C77.0973 163.832 80.6253 167.288 85.4733 167.288ZM85.4733 164.264C82.4973 164.264 80.6013 161.984 80.6013 159.008C80.6013 156.008 82.4973 153.752 85.4733 153.752C88.4253 153.752 90.3213 156.008 90.3213 159.008C90.3213 161.984 88.4253 164.264 85.4733 164.264ZM102.759 167V153.992H107.415V150.992H94.6469V153.992H99.3269V167H102.759ZM113.008 167V161.288H117.088C120.544 161.288 122.464 158.936 122.464 156.152C122.464 153.344 120.568 150.992 117.088 150.992H109.6V167H113.008ZM116.608 158.288H113.008V153.992H116.608C117.952 153.992 118.984 154.808 118.984 156.152C118.984 157.472 117.952 158.288 116.608 158.288ZM136.98 167L141.636 155.408H138.372L135.324 163.472L132.3 155.408H129.036L133.692 167H136.98ZM148.444 167.288C150.244 167.288 152.068 166.736 153.22 165.68L151.852 163.664C151.108 164.384 149.764 164.792 148.78 164.792C146.812 164.792 145.66 163.616 145.444 162.2H154.06V161.48C154.06 157.712 151.732 155.12 148.252 155.12C144.748 155.12 142.252 157.832 142.252 161.192C142.252 164.912 144.916 167.288 148.444 167.288ZM151.132 160.088H145.42C145.54 158.936 146.356 157.616 148.252 157.616C150.268 157.616 151.036 158.984 151.132 160.088ZM159.31 167V159.344C159.814 158.6 161.158 158.024 162.166 158.024C162.526 158.024 162.79 158.048 163.006 158.096V155.12C161.566 155.12 160.15 155.96 159.31 156.968V155.408H156.262V167H159.31ZM166.422 154.16C167.43 154.16 168.246 153.344 168.246 152.336C168.246 151.328 167.43 150.536 166.422 150.536C165.438 150.536 164.622 151.328 164.622 152.336C164.622 153.344 165.438 154.16 166.422 154.16ZM167.958 167V155.408H164.91V167H167.958ZM174.725 167V158.072H177.077V155.408H174.725V154.928C174.725 153.8 175.301 153.248 176.165 153.248C176.573 153.248 176.909 153.32 177.149 153.488L177.773 151.232C177.221 150.944 176.453 150.752 175.565 150.752C173.333 150.752 171.677 152.216 171.677 154.928V155.408H169.757V158.072H171.677V167H174.725ZM180.341 154.16C181.349 154.16 182.165 153.344 182.165 152.336C182.165 151.328 181.349 150.536 180.341 150.536C179.357 150.536 178.541 151.328 178.541 152.336C178.541 153.344 179.357 154.16 180.341 154.16ZM181.877 167V155.408H178.829V167H181.877ZM190.351 167.288C192.151 167.288 193.975 166.736 195.127 165.68L193.759 163.664C193.015 164.384 191.671 164.792 190.687 164.792C188.719 164.792 187.567 163.616 187.351 162.2H195.967V161.48C195.967 157.712 193.639 155.12 190.159 155.12C186.655 155.12 184.159 157.832 184.159 161.192C184.159 164.912 186.823 167.288 190.351 167.288ZM193.039 160.088H187.327C187.447 158.936 188.263 157.616 190.159 157.616C192.175 157.616 192.943 158.984 193.039 160.088ZM209.208 167V150.992H206.136V156.896C205.224 155.696 203.928 155.12 202.56 155.12C199.608 155.12 197.424 157.424 197.424 161.192C197.424 165.08 199.656 167.288 202.56 167.288C203.976 167.288 205.224 166.664 206.136 165.512V167H209.208ZM203.52 164.576C201.768 164.576 200.568 163.208 200.568 161.192C200.568 159.2 201.768 157.832 203.52 157.832C204.528 157.832 205.632 158.384 206.136 159.152V163.256C205.632 164.024 204.528 164.576 203.52 164.576Z" fill="#0B0C0F"/>
</svg>
