<svg width="24" height="24" viewBox="0 0 24 24" fill="none" xmlns="http://www.w3.org/2000/svg">
<path d="M15.25 12.0001C15.25 13.7982 13.7981 15.2501 12 15.2501C10.2019 15.2501 8.75 13.7982 8.75 12.0001C8.75 10.202 10.2019 8.75008 12 8.75008C13.7981 8.75008 15.25 10.202 15.25 12.0001Z" stroke="#373E49" stroke-width="1.5" stroke-linecap="round" stroke-linejoin="round"/>
<path d="M12 19C15.7879 19 19.3183 17.2405 21.7757 14.1952C22.7414 13.0024 22.7414 10.9976 21.7757 9.80483C19.3183 6.75952 15.7879 5 12 5C8.21206 5 4.68166 6.75952 2.22432 9.80483C1.25856 10.9976 1.25856 13.0024 2.22432 14.1952C4.68166 17.2405 8.21206 19 12 19Z" stroke="#373E49" stroke-width="1.5" stroke-linecap="round" stroke-linejoin="round"/>
</svg>
