<svg width="24" height="24" viewBox="0 0 24 24" fill="none" xmlns="http://www.w3.org/2000/svg">
<path d="M14.2769 9.72292L9.72292 14.2769C9.13792 13.6919 8.77792 12.8909 8.77792 11.9999C8.77792 10.2179 10.2179 8.77792 11.9999 8.77792C12.8909 8.77792 13.6919 9.13792 14.2769 9.72292Z" stroke="#373E49" stroke-width="1.5" stroke-linecap="round" stroke-linejoin="round"/>
<path d="M15.1589 12.6299C14.9249 13.8989 13.8899 14.9339 12.6209 15.1679" stroke="#373E49" stroke-width="1.5" stroke-linecap="round" stroke-linejoin="round"/>
<path d="M9.72299 14.277L3 21" stroke="#373E49" stroke-width="1.5" stroke-linecap="round" stroke-linejoin="round"/>
<path d="M21 3L14.277 9.72299" stroke="#373E49" stroke-width="1.5" stroke-linecap="round" stroke-linejoin="round"/>
<path d="M17.4911 6.3125C15.8002 5.4585 13.9336 5 12 5C8.21205 5 4.68165 6.75951 2.22432 9.80483C1.25856 10.9976 1.25856 13.0024 2.22432 14.1952C3.37849 15.6255 4.76938 16.7722 6.3125 17.5861" stroke="#373E49" stroke-width="1.5" stroke-linecap="round" stroke-linejoin="round"/>
<path d="M19.4375 7.52951C20.2912 8.17669 21.0768 8.93877 21.7757 9.80485C22.7414 10.9976 22.7414 13.0024 21.7757 14.1952C19.3183 17.2405 15.7879 19 12 19C10.7988 19 9.62343 18.8231 8.5 18.4843" stroke="#373E49" stroke-width="1.5" stroke-linecap="round" stroke-linejoin="round"/>
</svg>
