<svg width="12" height="12" viewBox="0 0 12 12" fill="none" xmlns="http://www.w3.org/2000/svg">
<path fill-rule="evenodd" clip-rule="evenodd" d="M6 12C2.68629 12 0 9.31371 0 6C0 2.68629 2.68629 0 6 0C9.31371 0 12 2.68629 12 6C12 9.31371 9.31371 12 6 12ZM6.54545 6.74944C7.48649 6.50724 8.18182 5.653 8.18182 4.63636C8.18182 3.43138 7.20498 2.45455 6 2.45455C4.79502 2.45455 3.81818 3.43138 3.81818 4.63636H4.90909C4.90909 4.03387 5.39751 3.54545 6 3.54545C6.60249 3.54545 7.09091 4.03387 7.09091 4.63636C7.09091 5.23886 6.60249 5.72727 6 5.72727H5.45455V7.41818H6.54545V6.74944ZM6 9.54545C6.39162 9.54545 6.70909 9.22798 6.70909 8.83636C6.70909 8.44474 6.39162 8.12727 6 8.12727C5.60838 8.12727 5.29091 8.44474 5.29091 8.83636C5.29091 9.22798 5.60838 9.54545 6 9.54545Z" fill="#637083"/>
</svg>
