<svg width="24" height="24" viewBox="0 0 24 24" fill="none" xmlns="http://www.w3.org/2000/svg">
<rect width="24" height="24" rx="12" fill="#FEDB00"/>
<path d="M10.6667 13.3334C10.884 13.5552 11.1433 13.7313 11.4295 13.8516C11.7157 13.9718 12.023 14.0338 12.3334 14.0338C12.6438 14.0338 12.9511 13.9718 13.2373 13.8516C13.5235 13.7313 13.7828 13.5552 14.0001 13.3334L16.6667 10.6668C17.1088 10.2247 17.3571 9.62521 17.3571 9.00009C17.3571 8.37497 17.1088 7.77545 16.6667 7.33342C16.2247 6.89139 15.6252 6.64307 15.0001 6.64307C14.375 6.64307 13.7754 6.89139 13.3334 7.33342L13.0001 7.66676" stroke="#2C3E50" stroke-width="1.5" stroke-linecap="round" stroke-linejoin="round"/>
<path d="M13.3334 10.6666C13.1162 10.4449 12.8569 10.2688 12.5707 10.1485C12.2845 10.0283 11.9772 9.96631 11.6668 9.96631C11.3563 9.96631 11.049 10.0283 10.7628 10.1485C10.4767 10.2688 10.2173 10.4449 10.0001 10.6666L7.33342 13.3333C6.89139 13.7753 6.64307 14.3749 6.64307 15C6.64307 15.6251 6.89139 16.2246 7.33342 16.6666C7.77545 17.1087 8.37497 17.357 9.00009 17.357C9.62521 17.357 10.2247 17.1087 10.6668 16.6666L11.0001 16.3333" stroke="#2C3E50" stroke-width="1.5" stroke-linecap="round" stroke-linejoin="round"/>
</svg>
