<svg width="99" height="16" viewBox="0 0 99 16" fill="none" xmlns="http://www.w3.org/2000/svg">
<path d="M0.46 0.719999H3.44V6.24H9.1V0.719999H12.08V15H9.1V9H3.44V15H0.46V0.719999ZM21.3513 15.36C20.2846 15.36 19.3313 15.1867 18.4913 14.84C17.6513 14.4933 16.9379 13.9933 16.3513 13.34C15.7646 12.6867 15.3113 11.9 14.9913 10.98C14.6846 10.06 14.5313 9.02 14.5313 7.86C14.5313 6.7 14.6846 5.66 14.9913 4.74C15.3113 3.82 15.7646 3.03333 16.3513 2.38C16.9513 1.72667 17.6713 1.22667 18.5113 0.879999C19.3513 0.533332 20.2979 0.359999 21.3513 0.359999C22.4179 0.359999 23.3713 0.533332 24.2113 0.879999C25.0513 1.22667 25.7579 1.72667 26.3313 2.38C26.9179 3.03333 27.3646 3.82 27.6713 4.74C27.9779 5.66 28.1313 6.7 28.1313 7.86C28.1313 9.02 27.9779 10.06 27.6713 10.98C27.3779 11.9 26.9379 12.6867 26.3513 13.34C25.7779 13.9933 25.0713 14.4933 24.2313 14.84C23.3913 15.1867 22.4313 15.36 21.3513 15.36ZM21.3313 12.8C22.5846 12.8 23.5179 12.3733 24.1313 11.52C24.7446 10.6667 25.0513 9.44667 25.0513 7.86C25.0513 6.28667 24.7446 5.07333 24.1313 4.22C23.5179 3.35333 22.5846 2.92 21.3313 2.92C20.0779 2.92 19.1446 3.35333 18.5312 4.22C17.9179 5.07333 17.6113 6.28667 17.6113 7.86C17.6113 9.44667 17.9179 10.6667 18.5312 11.52C19.1446 12.3733 20.0779 12.8 21.3313 12.8ZM37.1767 7.18H42.6567V13.22C41.9234 13.9 41.0501 14.4267 40.0367 14.8C39.0234 15.1733 37.9767 15.36 36.8967 15.36C35.7634 15.36 34.7701 15.18 33.9167 14.82C33.0767 14.46 32.3767 13.9533 31.8167 13.3C31.2567 12.6467 30.8367 11.86 30.5567 10.94C30.2767 10.0067 30.1367 8.98 30.1367 7.86C30.1367 6.7 30.2901 5.66 30.5967 4.74C30.9034 3.82 31.3367 3.03333 31.8967 2.38C32.4701 1.72667 33.1634 1.22667 33.9767 0.879999C34.7901 0.533332 35.6967 0.359999 36.6967 0.359999C37.6167 0.359999 38.4034 0.473332 39.0567 0.699999C39.7234 0.926666 40.2834 1.24 40.7367 1.64C41.2034 2.04 41.5701 2.50667 41.8367 3.04C42.1167 3.57333 42.3167 4.14667 42.4367 4.76L39.4767 5.14C39.3967 4.78 39.2967 4.46667 39.1767 4.2C39.0701 3.92 38.9101 3.68667 38.6967 3.5C38.4834 3.3 38.2167 3.15333 37.8967 3.06C37.5767 2.95333 37.1767 2.9 36.6967 2.9C35.5367 2.9 34.6701 3.33333 34.0967 4.2C33.5234 5.06667 33.2367 6.28667 33.2367 7.86C33.2367 9.44667 33.5234 10.6733 34.0967 11.54C34.6834 12.3933 35.6301 12.82 36.9367 12.82C37.5634 12.82 38.1034 12.76 38.5567 12.64C39.0234 12.5067 39.4701 12.3067 39.8967 12.04V9.66H37.1767V7.18ZM57.3084 10.06C57.2418 10.82 57.0618 11.5267 56.7684 12.18C56.4884 12.82 56.0951 13.38 55.5884 13.86C55.0951 14.3267 54.4818 14.6933 53.7484 14.96C53.0284 15.2267 52.1884 15.36 51.2284 15.36C50.1484 15.36 49.1951 15.18 48.3684 14.82C47.5551 14.46 46.8684 13.9533 46.3084 13.3C45.7618 12.6467 45.3484 11.86 45.0684 10.94C44.7884 10.0067 44.6484 8.98 44.6484 7.86C44.6484 6.7 44.8018 5.66 45.1084 4.74C45.4151 3.82 45.8551 3.03333 46.4284 2.38C47.0018 1.72667 47.6951 1.22667 48.5084 0.879999C49.3218 0.533332 50.2418 0.359999 51.2684 0.359999C52.1751 0.359999 52.9618 0.473332 53.6284 0.699999C54.3084 0.926666 54.8751 1.25333 55.3284 1.68C55.7951 2.10667 56.1684 2.62 56.4484 3.22C56.7284 3.82 56.9351 4.49333 57.0684 5.24L54.1084 5.62C53.9618 4.78 53.6751 4.12 53.2484 3.64C52.8351 3.16 52.1751 2.92 51.2684 2.92C50.1218 2.92 49.2484 3.35333 48.6484 4.22C48.0618 5.07333 47.7684 6.28667 47.7684 7.86C47.7684 9.44667 48.0818 10.6667 48.7084 11.52C49.3484 12.3733 50.2018 12.8 51.2684 12.8C52.1884 12.8 52.8618 12.5667 53.2884 12.1C53.7284 11.62 54.0018 10.94 54.1084 10.06H57.3084ZM63.5194 7.88C63.5194 6.74667 63.666 5.72 63.9594 4.8C64.2527 3.86667 64.666 3.07333 65.1994 2.42C65.746 1.75333 66.406 1.24667 67.1794 0.899999C67.966 0.539999 68.846 0.359999 69.8194 0.359999C70.7927 0.359999 71.666 0.539999 72.4394 0.899999C73.226 1.24667 73.886 1.74667 74.4194 2.4C74.966 3.04 75.3794 3.82667 75.6594 4.76C75.9527 5.68 76.0994 6.71333 76.0994 7.86C76.0994 9.00667 75.9527 10.04 75.6594 10.96C75.3794 11.88 74.966 12.6733 74.4194 13.34C73.886 13.9933 73.226 14.5 72.4394 14.86C71.666 15.2067 70.7927 15.38 69.8194 15.38C68.8327 15.38 67.9527 15.2067 67.1794 14.86C66.406 14.5 65.746 13.9933 65.1994 13.34C64.6527 12.6867 64.2327 11.9 63.9394 10.98C63.6594 10.06 63.5194 9.02667 63.5194 7.88ZM64.3594 7.88C64.3594 8.86667 64.4727 9.77333 64.6994 10.6C64.926 11.4267 65.266 12.14 65.7194 12.74C66.1727 13.34 66.7394 13.8133 67.4194 14.16C68.0994 14.4933 68.8927 14.66 69.7994 14.66C70.706 14.66 71.4994 14.4933 72.1794 14.16C72.8727 13.8133 73.446 13.34 73.8994 12.74C74.3527 12.14 74.6927 11.4267 74.9194 10.6C75.146 9.77333 75.2594 8.86667 75.2594 7.88C75.2594 6.88 75.1394 5.96667 74.8994 5.14C74.6727 4.3 74.3327 3.58 73.8794 2.98C73.426 2.38 72.8527 1.91333 72.1594 1.58C71.4794 1.24667 70.6927 1.08 69.7994 1.08C68.8927 1.08 68.0994 1.24667 67.4194 1.58C66.7527 1.91333 66.186 2.38 65.7194 2.98C65.266 3.58 64.926 4.3 64.6994 5.14C64.4727 5.96667 64.3594 6.88 64.3594 7.88ZM78.7017 4.74H79.4617V6.5C79.9951 5.78 80.5951 5.25333 81.2617 4.92C81.9417 4.58667 82.6751 4.42 83.4617 4.42C84.6217 4.42 85.4751 4.75333 86.0217 5.42C86.5817 6.07333 86.8617 6.98667 86.8617 8.16V15H86.1017V8.34C86.1017 7.26 85.8817 6.45333 85.4417 5.92C85.0151 5.38667 84.3151 5.12 83.3417 5.12C82.2484 5.12 81.2884 5.49333 80.4617 6.24C80.0617 6.6 79.7951 6.96667 79.6617 7.34C79.5284 7.7 79.4617 8.18 79.4617 8.78V15H78.7017V4.74ZM98.1383 10.06H90.0383C90.0383 10.74 90.1116 11.36 90.2583 11.92C90.4183 12.48 90.6583 12.96 90.9783 13.36C91.3116 13.76 91.7249 14.0733 92.2183 14.3C92.7116 14.5267 93.2983 14.64 93.9783 14.64C94.9116 14.64 95.6383 14.44 96.1583 14.04C96.6916 13.6267 97.0383 13.0933 97.1983 12.44H97.9183C97.8383 12.84 97.6983 13.22 97.4983 13.58C97.2983 13.9267 97.0316 14.2333 96.6983 14.5C96.3649 14.7533 95.9649 14.9533 95.4983 15.1C95.0449 15.2467 94.5183 15.32 93.9183 15.32C92.4249 15.32 91.2783 14.8533 90.4783 13.92C89.6783 12.9733 89.2783 11.6467 89.2783 9.94C89.2783 9.02 89.3916 8.22 89.6183 7.54C89.8449 6.84667 90.1583 6.27333 90.5583 5.82C90.9716 5.35333 91.4583 5.00667 92.0183 4.78C92.5916 4.54 93.2183 4.42 93.8983 4.42C94.6449 4.42 95.2849 4.55333 95.8183 4.82C96.3649 5.07333 96.8049 5.43333 97.1383 5.9C97.4849 6.35333 97.7383 6.89333 97.8983 7.52C98.0583 8.13333 98.1383 8.80667 98.1383 9.54V10.06ZM93.8783 5.08C92.7583 5.08 91.8583 5.44667 91.1783 6.18C90.4983 6.9 90.1183 7.97333 90.0383 9.4H97.3783C97.3783 8.77333 97.3116 8.19333 97.1783 7.66C97.0583 7.12667 96.8583 6.67333 96.5783 6.3C96.2983 5.91333 95.9383 5.61333 95.4983 5.4C95.0583 5.18667 94.5183 5.08 93.8783 5.08Z" fill="black"/>
</svg>
