<svg width="45" height="40" viewBox="0 0 45 40" fill="none" xmlns="http://www.w3.org/2000/svg">
<path fill-rule="evenodd" clip-rule="evenodd" d="M12.9011 33.0615C8.51351 31.0019 4.56072 27.819 2.83748 23.0301C1.12163 18.2616 3.03609 11.2676 9.05525 9.83105C11.2493 9.30741 14.6524 9.53039 16.5801 11.0353C18.5079 12.5403 18.8569 13.6322 19.173 14.4894C20.3238 13.3565 21.315 12.6977 22.434 12.2205C22.961 11.9957 23.9695 11.5141 25.4829 11.5141C29.1827 11.5141 31.5245 13.1582 33.3083 16.193C34.3962 18.0441 34.9557 21.6589 34.0265 23.8275C33.2159 26.0237 31.8847 27.6747 30.6755 28.8446C27.6764 31.7463 25.4978 33.3478 23.3885 34.7453C21.9533 35.6961 15.3164 39.1784 10.6106 39.6232C7.4795 39.9192 3.27137 40.1982 0.0523223 39.6232C-0.369145 39.5479 1.81796 39.6326 4.36855 39.0488C4.71442 38.9697 2.90112 38.7854 3.27137 38.7539C5.5843 38.5569 8.67416 37.7495 10.6106 37.1137C14.4293 35.8598 17.8565 33.9923 19.9532 32.741C22.05 31.4898 23.601 30.3568 25.3594 29.0525C25.9316 28.628 26.9964 27.6429 27.5121 27.1523C28.2362 26.4635 28.4179 26.2661 29.077 25.5159C29.5014 25.0329 29.721 24.7075 30.1982 23.9484C30.6755 23.1893 32.0757 20.0732 30.1982 17.2801C28.3207 14.4871 25.9483 14.9178 23.7586 15.7542C21.2243 16.7221 19.7714 18.7005 18.8569 19.3667C18.0247 18.0615 17.7026 17.5588 16.5801 16.193C15.4577 14.8273 13.9698 13.7477 12.1776 13.4174C8.49068 12.7379 5.36559 15.9622 5.7468 20.0966C6.01995 23.0592 7.7889 25.0008 7.7889 25.0008C7.7889 25.0008 10.9274 28.2602 11.395 28.7028C11.8685 29.195 12.5116 29.8622 12.7551 30.1147C12.5485 30.1332 12.3592 30.1582 12.0178 30.1582C12.0721 30.2637 12.3771 30.4771 12.486 30.6485C12.3198 30.6897 12.2318 30.7218 12.0178 30.7563C12.1099 30.9057 12.6039 31.5109 12.7551 31.6991C12.7551 31.6991 12.1487 31.6665 11.8685 31.6991C12.0741 31.9864 12.9011 33.0615 12.9011 33.0615Z" fill="#373E49"/>
<path fill-rule="evenodd" clip-rule="evenodd" d="M34.4586 0C34.4586 0 36.3298 2.61505 36.6871 4.6558C37.98 4.78261 40.8678 3.85294 40.8678 3.85294L41.3416 7.14921C41.3416 7.14921 39.4818 7.03182 38.5118 7.14921C37.5418 7.26659 37.1868 7.33867 36.9657 7.45132C37.0997 8.80059 37.0997 10.0922 37.2175 10.8913C37.3353 11.6905 37.9584 13.7933 38.2693 14.4232C38.3994 14.6867 38.7614 15.8647 39.232 17.1758C39.8869 18.9997 40.63 21.1149 40.8033 21.6854C40.9342 22.1161 41.1593 22.983 41.2525 23.9432C41.2525 25.2303 41.3416 26.5067 41.3416 26.8456C41.3416 27.45 42.2668 29.2998 42.5005 29.8598C42.8943 30.8035 43.2274 32.1271 43.7641 33.698C44.2067 34.9937 44.7914 36.2029 44.8913 36.4288C45.1122 36.9286 41.0695 33.8118 40.8033 33.4818C40.6511 32.9318 40.4252 32.054 40.1526 31.1097C39.8801 30.1653 39.0666 28.7339 38.9166 27.7264C38.859 27.3398 38.7402 26.8789 38.6882 26.3491C38.6047 25.4981 38.6882 24.6332 38.5118 23.9432C38.1369 22.4132 36.2738 17.8506 35.8052 16.4316C35.3366 15.0126 34.3103 12.3458 34.1183 11.1516C33.9262 9.9573 33.7618 9.28255 33.5852 7.93442C32.5489 7.82479 31.4817 7.78779 30.6522 7.80483C29.6803 7.82479 28.9077 7.9483 27.4852 8.25168C25.993 8.56991 25.1808 8.82047 24.0319 8.96587C22.8887 9.11055 21.6278 9.29164 19.7723 9.29164C18.6542 9.19852 17.8398 9.05489 17.2227 8.40182C19.5618 7.38822 22.2655 6.80589 24.0319 6.46111C26.0913 5.99243 27.639 5.0823 29.099 5.0823C30.5591 5.0823 33.1644 5.0823 33.1644 5.0823C33.1644 5.0823 33.1513 3.86206 32.7894 3.28408C32.4275 2.7061 32.2269 1.84148 32.078 1.33814C32.4561 0.983748 34.4586 0 34.4586 0Z" fill="#373E49"/>
</svg>
