<svg width="43" height="42" viewBox="0 0 43 42" fill="none" xmlns="http://www.w3.org/2000/svg">
<path fill-rule="evenodd" clip-rule="evenodd" d="M15.8788 1.91569C14.278 -0.207036 11.2594 -0.630112 9.13669 0.970728C7.01396 2.57157 6.59088 5.59012 8.19172 7.71285L8.22362 7.75515C6.63171 6.93616 4.64426 7.04161 3.11919 8.19172C0.996461 9.79256 0.573384 12.8111 2.17422 14.9338L3.7139 16.9755C3.08102 17.1237 2.46803 17.4032 1.91569 17.8197C-0.207038 19.4206 -0.630111 22.4391 0.970729 24.5618L8.25638 34.2227C8.41438 34.4322 8.5862 34.6252 8.7696 34.8013C11.8495 38.8124 16.6936 41.3981 22.1416 41.3981C29.9462 41.3981 36.5114 36.0918 38.4262 28.89C38.539 28.6449 38.6327 28.3869 38.7049 28.1174L42.5845 13.6385C43.2726 11.0704 41.7486 8.43073 39.1805 7.74261C36.6124 7.05448 33.9727 8.57851 33.2846 11.1466L33.1186 11.7661C32.9588 11.6288 32.7963 11.4943 32.6314 11.3629L25.5068 1.91569C23.906 -0.207036 20.8874 -0.630112 18.7647 0.970728C17.9049 1.61913 17.324 2.50011 17.0434 3.45994L15.8788 1.91569Z" fill="#FEDB00"/>
<path d="M17.043 3.48242C18.3643 5.23468 19.7265 6.97887 20.7684 8.91897C20.951 9.25912 21.079 9.63051 21.3551 9.90655" stroke="black" stroke-width="2.407" stroke-linecap="round"/>
<path d="M8.4248 8.4248C10.2331 10.397 11.9332 12.3693 13.5289 14.4969" stroke="black" stroke-width="2.407" stroke-linecap="round"/>
<path d="M3.61035 16.8486C5.57292 18.0167 7.4707 19.2515 9.33574 20.5495C9.81239 20.8812 10.4716 21.2175 10.8313 21.6626" stroke="black" stroke-width="2.407" stroke-linecap="round"/>
<path d="M28.7476 20.9075C28.3441 19.4156 28.0308 17.6973 28.6058 16.1994C29.0986 14.9156 30.1997 13.7844 31.5245 13.3784C31.995 13.2342 32.6612 12.9873 33.1477 12.9873" stroke="black" stroke-width="2.407" stroke-linecap="round"/>
<path d="M9.97266 24.7963C10.4018 23.1255 10.977 21.5834 11.8168 20.0704C13.3136 17.3738 15.3721 15.0445 17.6557 12.9868C19.0783 11.705 20.6264 10.5823 22.2446 9.56192C22.6271 9.32072 23.0304 9.0355 23.4731 8.9248" stroke="black" stroke-width="2.407" stroke-linecap="round"/>
</svg>
